<svg width="38" height="34" viewBox="0 0 38 34" fill="none" xmlns="http://www.w3.org/2000/svg">
<path d="M6.5 29.5834V31.6667C6.5 32.257 6.30035 32.7518 5.90104 33.1511C5.50174 33.5504 5.00694 33.75 4.41667 33.75H2.33333C1.74306 33.75 1.24826 33.5504 0.848958 33.1511C0.449653 32.7518 0.25 32.257 0.25 31.6667V15L4.625 2.50002C4.83333 1.87502 5.2066 1.37155 5.74479 0.989604C6.28299 0.607659 6.88194 0.416687 7.54167 0.416687H30.4583C31.1181 0.416687 31.717 0.607659 32.2552 0.989604C32.7934 1.37155 33.1667 1.87502 33.375 2.50002L37.75 15V31.6667C37.75 32.257 37.5503 32.7518 37.151 33.1511C36.7517 33.5504 36.2569 33.75 35.6667 33.75H33.5833C32.9931 33.75 32.4983 33.5504 32.099 33.1511C31.6997 32.7518 31.5 32.257 31.5 31.6667V29.5834H6.5ZM6.08333 10.8334H31.9167L29.7292 4.58335H8.27083L6.08333 10.8334ZM9.625 23.3334C10.4931 23.3334 11.2309 23.0295 11.8385 22.4219C12.4462 21.8143 12.75 21.0764 12.75 20.2084C12.75 19.3403 12.4462 18.6025 11.8385 17.9948C11.2309 17.3872 10.4931 17.0834 9.625 17.0834C8.75694 17.0834 8.0191 17.3872 7.41146 17.9948C6.80382 18.6025 6.5 19.3403 6.5 20.2084C6.5 21.0764 6.80382 21.8143 7.41146 22.4219C8.0191 23.0295 8.75694 23.3334 9.625 23.3334ZM28.375 23.3334C29.2431 23.3334 29.9809 23.0295 30.5885 22.4219C31.1962 21.8143 31.5 21.0764 31.5 20.2084C31.5 19.3403 31.1962 18.6025 30.5885 17.9948C29.9809 17.3872 29.2431 17.0834 28.375 17.0834C27.5069 17.0834 26.7691 17.3872 26.1615 17.9948C25.5538 18.6025 25.25 19.3403 25.25 20.2084C25.25 21.0764 25.5538 21.8143 26.1615 22.4219C26.7691 23.0295 27.5069 23.3334 28.375 23.3334ZM4.41667 25.4167H33.5833V15H4.41667V25.4167Z" fill="white"/>
</svg>
