<svg width="50" height="34" viewBox="0 0 50 34" fill="none" xmlns="http://www.w3.org/2000/svg">
<path d="M0 33.6666V27.8854C0 26.7048 0.295139 25.6111 0.885417 24.6041C1.47569 23.5972 2.29167 22.8333 3.33333 22.3125C3.81944 22.0694 4.28819 21.8437 4.73958 21.6354C5.22569 21.4271 5.72917 21.2361 6.25 21.0625V33.6666H0ZM8.33333 19.0833C6.59722 19.0833 5.12153 18.4757 3.90625 17.2604C2.69097 16.0451 2.08333 14.5694 2.08333 12.8333C2.08333 11.0972 2.69097 9.62151 3.90625 8.40623C5.12153 7.19095 6.59722 6.58331 8.33333 6.58331C10.0694 6.58331 11.5451 7.19095 12.7604 8.40623C13.9757 9.62151 14.5833 11.0972 14.5833 12.8333C14.5833 14.5694 13.9757 16.0451 12.7604 17.2604C11.5451 18.4757 10.0694 19.0833 8.33333 19.0833ZM8.33333 14.9166C8.92361 14.9166 9.40972 14.7257 9.79167 14.3437C10.2083 13.9271 10.4167 13.4236 10.4167 12.8333C10.4167 12.243 10.2083 11.7569 9.79167 11.375C9.40972 10.9583 8.92361 10.75 8.33333 10.75C7.74306 10.75 7.23958 10.9583 6.82292 11.375C6.44097 11.7569 6.25 12.243 6.25 12.8333C6.25 13.4236 6.44097 13.9271 6.82292 14.3437C7.23958 14.7257 7.74306 14.9166 8.33333 14.9166ZM8.33333 33.6666V27.8333C8.33333 26.6528 8.62847 25.5764 9.21875 24.6041C9.84375 23.5972 10.6597 22.8333 11.6667 22.3125C13.8194 21.2361 16.0069 20.4375 18.2292 19.9166C20.4514 19.3611 22.7083 19.0833 25 19.0833C27.2917 19.0833 29.5486 19.3611 31.7708 19.9166C33.9931 20.4375 36.1806 21.2361 38.3333 22.3125C39.3403 22.8333 40.1389 23.5972 40.7292 24.6041C41.3542 25.5764 41.6667 26.6528 41.6667 27.8333V33.6666H8.33333ZM12.5 29.5H37.5V27.8333C37.5 27.4514 37.3958 27.1041 37.1875 26.7916C37.0139 26.4791 36.7708 26.2361 36.4583 26.0625C34.5833 25.125 32.691 24.4305 30.7813 23.9791C28.8715 23.493 26.9444 23.25 25 23.25C23.0556 23.25 21.1285 23.493 19.2188 23.9791C17.309 24.4305 15.4167 25.125 13.5417 26.0625C13.2292 26.2361 12.9687 26.4791 12.7604 26.7916C12.5868 27.1041 12.5 27.4514 12.5 27.8333V29.5ZM25 17C22.7083 17 20.7465 16.184 19.1146 14.5521C17.4826 12.9201 16.6667 10.9583 16.6667 8.66665C16.6667 6.37498 17.4826 4.41317 19.1146 2.78123C20.7465 1.14929 22.7083 0.333313 25 0.333313C27.2917 0.333313 29.2535 1.14929 30.8854 2.78123C32.5174 4.41317 33.3333 6.37498 33.3333 8.66665C33.3333 10.9583 32.5174 12.9201 30.8854 14.5521C29.2535 16.184 27.2917 17 25 17ZM25 12.8333C26.1458 12.8333 27.1181 12.434 27.9167 11.6354C28.75 10.8021 29.1667 9.81248 29.1667 8.66665C29.1667 7.52081 28.75 6.54859 27.9167 5.74998C27.1181 4.91665 26.1458 4.49998 25 4.49998C23.8542 4.49998 22.8646 4.91665 22.0313 5.74998C21.2326 6.54859 20.8333 7.52081 20.8333 8.66665C20.8333 9.81248 21.2326 10.8021 22.0313 11.6354C22.8646 12.434 23.8542 12.8333 25 12.8333ZM41.6667 19.0833C39.9306 19.0833 38.4549 18.4757 37.2396 17.2604C36.0243 16.0451 35.4167 14.5694 35.4167 12.8333C35.4167 11.0972 36.0243 9.62151 37.2396 8.40623C38.4549 7.19095 39.9306 6.58331 41.6667 6.58331C43.4028 6.58331 44.8785 7.19095 46.0938 8.40623C47.309 9.62151 47.9167 11.0972 47.9167 12.8333C47.9167 14.5694 47.309 16.0451 46.0938 17.2604C44.8785 18.4757 43.4028 19.0833 41.6667 19.0833ZM41.6667 14.9166C42.2569 14.9166 42.7431 14.7257 43.125 14.3437C43.5417 13.9271 43.75 13.4236 43.75 12.8333C43.75 12.243 43.5417 11.7569 43.125 11.375C42.7431 10.9583 42.2569 10.75 41.6667 10.75C41.0764 10.75 40.5729 10.9583 40.1563 11.375C39.7743 11.7569 39.5833 12.243 39.5833 12.8333C39.5833 13.4236 39.7743 13.9271 40.1563 14.3437C40.5729 14.7257 41.0764 14.9166 41.6667 14.9166ZM43.75 33.6666V21.0625C44.2708 21.2361 44.7569 21.4271 45.2083 21.6354C45.6944 21.8437 46.1806 22.0694 46.6667 22.3125C47.7083 22.8333 48.5243 23.5972 49.1146 24.6041C49.7049 25.6111 50 26.7048 50 27.8854V33.6666H43.75Z" fill="white"/>
</svg>
