<svg width="42" height="34" viewBox="0 0 42 34" fill="none" xmlns="http://www.w3.org/2000/svg">
<path d="M16.8333 32.3125V20.4375L19.75 12.1041C19.9236 11.7222 20.1667 11.4097 20.4792 11.1666C20.8264 10.8889 21.2431 10.75 21.7292 10.75H36.9375C37.4236 10.75 37.8403 10.8889 38.1875 11.1666C38.5347 11.4097 38.7778 11.7222 38.9167 12.1041L41.8333 20.4375V32.3125C41.8333 32.6944 41.6945 33.0243 41.4167 33.3021C41.1736 33.5451 40.8611 33.6666 40.4792 33.6666H39.0208C38.6389 33.6666 38.309 33.5451 38.0313 33.3021C37.7882 33.0243 37.6667 32.6944 37.6667 32.3125V30.5416H21V32.3125C21 32.6944 20.8611 33.0243 20.5833 33.3021C20.3403 33.5451 20.0278 33.6666 19.6458 33.6666H18.1875C17.8056 33.6666 17.4757 33.5451 17.1979 33.3021C16.9549 33.0243 16.8333 32.6944 16.8333 32.3125ZM21 18.0416H37.6667L36.2083 13.875H22.4583L21 18.0416ZM19.9583 21.1666V27.4166V21.1666ZM23.0833 26.375C23.6736 26.375 24.1597 26.184 24.5417 25.8021C24.9583 25.3854 25.1667 24.8819 25.1667 24.2916C25.1667 23.7014 24.9583 23.2153 24.5417 22.8333C24.1597 22.4166 23.6736 22.2083 23.0833 22.2083C22.4931 22.2083 21.9896 22.4166 21.5729 22.8333C21.191 23.2153 21 23.7014 21 24.2916C21 24.8819 21.191 25.3854 21.5729 25.8021C21.9896 26.184 22.4931 26.375 23.0833 26.375ZM35.5833 26.375C36.1736 26.375 36.6597 26.184 37.0417 25.8021C37.4583 25.3854 37.6667 24.8819 37.6667 24.2916C37.6667 23.7014 37.4583 23.2153 37.0417 22.8333C36.6597 22.4166 36.1736 22.2083 35.5833 22.2083C34.9931 22.2083 34.4896 22.4166 34.0729 22.8333C33.691 23.2153 33.5 23.7014 33.5 24.2916C33.5 24.8819 33.691 25.3854 34.0729 25.8021C34.4896 26.184 34.9931 26.375 35.5833 26.375ZM4.33334 33.6666V31.5833L6.41667 29.5C4.68056 29.5 3.20487 28.8923 1.98959 27.6771C0.774311 26.4618 0.166672 24.9861 0.166672 23.25V6.58331C0.166672 4.29165 1.19098 2.67706 3.23959 1.73956C5.2882 0.802063 8.77778 0.333313 13.7083 0.333313C18.8472 0.333313 22.3889 0.784702 24.3333 1.68748C26.2778 2.59026 27.25 4.2222 27.25 6.58331V8.66665H23.0833V6.58331H4.33334V19.0833H14.75V33.6666H4.33334ZM6.41667 25.3333C7.00695 25.3333 7.49306 25.1423 7.87501 24.7604C8.29167 24.3437 8.5 23.8403 8.5 23.25C8.5 22.6597 8.29167 22.1736 7.87501 21.7916C7.49306 21.375 7.00695 21.1666 6.41667 21.1666C5.82639 21.1666 5.32292 21.375 4.90626 21.7916C4.52431 22.1736 4.33334 22.6597 4.33334 23.25C4.33334 23.8403 4.52431 24.3437 4.90626 24.7604C5.32292 25.1423 5.82639 25.3333 6.41667 25.3333ZM19.9583 27.4166H38.7083V21.1666H19.9583V27.4166Z" fill="white"/>
</svg>
